<?xml version="1.0" encoding="UTF-8" standalone="no"?>
<!-- Created with Inkscape (http://www.inkscape.org/) -->

<svg
   xmlns:dc="http://purl.org/dc/elements/1.1/"
   xmlns:cc="http://creativecommons.org/ns#"
   xmlns:rdf="http://www.w3.org/1999/02/22-rdf-syntax-ns#"
   xmlns:svg="http://www.w3.org/2000/svg"
   xmlns="http://www.w3.org/2000/svg"
   xmlns:sodipodi="http://sodipodi.sourceforge.net/DTD/sodipodi-0.dtd"
   xmlns:inkscape="http://www.inkscape.org/namespaces/inkscape"
   width="1920"
   height="1080"
   id="svg2"
   inkscape:label="Pozadí"
   version="1.1"
   inkscape:version="0.92.4 (5da689c313, 2019-01-14)"
   inkscape:export-filename="C:\Users\acer\Desktop\Piráti\Grafika\Šablony\event-pivo-plain.png"
   inkscape:export-xdpi="96"
   inkscape:export-ydpi="96"
   sodipodi:docname="event-pivo-plain.svg">
  <defs
     id="defs3">
    <pattern
       y="0"
       x="0"
       height="6"
       width="6"
       patternUnits="userSpaceOnUse"
       id="EMFhbasepattern" />
  </defs>
  <sodipodi:namedview
     id="base"
     pagecolor="#ffffff"
     bordercolor="#666666"
     borderopacity="1.0"
     inkscape:pageopacity="0.0"
     inkscape:pageshadow="2"
     inkscape:zoom="0.49497475"
     inkscape:cx="962.85064"
     inkscape:cy="540.26329"
     inkscape:document-units="px"
     inkscape:current-layer="g3798"
     showgrid="false"
     inkscape:window-width="1858"
     inkscape:window-height="1057"
     inkscape:window-x="-8"
     inkscape:window-y="-8"
     inkscape:window-maximized="1"
     showguides="true"
     inkscape:guide-bbox="true" />
  <metadata
     id="metadata6">
    <rdf:RDF>
      <cc:Work
         rdf:about="">
        <dc:format>image/svg+xml</dc:format>
        <dc:type
           rdf:resource="http://purl.org/dc/dcmitype/StillImage" />
        <dc:title />
      </cc:Work>
    </rdf:RDF>
  </metadata>
  <g
     inkscape:label="Vrstva 1"
     inkscape:groupmode="layer"
     id="layer1"
     transform="translate(0,27.637817)">
    <rect
       style="fill:#ffffff;fill-opacity:1;stroke:none"
       id="rect3157"
       width="1920"
       height="1080"
       x="0"
       y="-27.637817" />
    <g
       id="g3798"
       transform="translate(18.442835,3.099679)">
      <text
         id="text3236-5"
         y="579.07361"
         x="938.43134"
         style="font-style:normal;font-variant:normal;font-weight:bold;font-stretch:normal;font-size:111.30016327px;line-height:0%;font-family:'Bebas Neue';-inkscape-font-specification:'Bebas Neue Bold';text-align:center;letter-spacing:3.08818507px;word-spacing:0px;writing-mode:lr-tb;text-anchor:middle;fill:#000000;fill-opacity:1;stroke:none;stroke-width:9.27501392"
         xml:space="preserve"><tspan
           style="font-size:142.07624817px;line-height:1.25;letter-spacing:0px;stroke-width:9.27501392"
           y="579.07361"
           x="938.43134"
           id="tspan3238-20"
           sodipodi:role="line">NA PIVO s Piráty</tspan></text>
      <text
         id="text3236-5-2"
         y="680.13031"
         x="941.995"
         style="font-style:normal;font-variant:normal;font-weight:bold;font-stretch:normal;font-size:118.42030334px;line-height:0%;font-family:'Bebas Neue';-inkscape-font-specification:'Bebas Neue Bold';text-align:center;letter-spacing:1.97798109px;word-spacing:0px;writing-mode:lr-tb;text-anchor:middle;fill:#000000;fill-opacity:1;stroke:none;stroke-width:9.86835957"
         xml:space="preserve"><tspan
           style="font-style:normal;font-variant:normal;font-weight:300;font-stretch:normal;font-size:90.99975586px;line-height:125%;font-family:'Bebas Neue Book';-inkscape-font-specification:'Bebas Neue Book, Light';text-align:center;letter-spacing:0px;writing-mode:lr-tb;text-anchor:middle;stroke-width:9.86835957"
           y="680.13031"
           x="941.995"
           id="tspan3238-20-3"
           sodipodi:role="line">V pardubicích</tspan></text>
      <flowRoot
         xml:space="preserve"
         id="flowRoot3800"
         style="font-style:normal;font-variant:normal;font-weight:normal;font-stretch:normal;font-size:12px;line-height:125%;font-family:'Bebas Neue';-inkscape-font-specification:'Bebas Neue';text-align:center;letter-spacing:3.13000011px;word-spacing:0px;text-anchor:middle;fill:#000000;fill-opacity:1;stroke:none;stroke-width:1px;stroke-linecap:butt;stroke-linejoin:miter;stroke-opacity:1"
         transform="translate(-18.442835,-26.615639)"><flowRegion
           id="flowRegion3802"><rect
             id="rect3804"
             width="256.57874"
             height="28.284271"
             x="723.26923"
             y="528.45673" /></flowRegion><flowPara
           id="flowPara3806" /></flowRoot>    </g>
    <path
       inkscape:connector-curvature="0"
       id="path3234"
       d="m 828.4486,375.11564 c -4.04439,-1.11335 -5.20707,-1.71913 -22.12409,-11.8486 -8.41034,-5.03385 -16.43848,-9.82034 -17.84723,-10.62425 -1.40991,-0.86556 -4.05672,-2.41181 -5.88719,-3.56204 -1.83047,-1.11336 -4.47728,-2.75803 -5.88719,-3.57439 -5.50385,-3.16614 -24.2526,-14.71059 -27.45356,-16.91206 -1.85514,-1.27402 -4.8235,-4.25473 -6.59219,-6.60464 -2.8446,-3.78461 -3.90828,-5.87486 -6.81476,-13.37238 -1.11336,-2.85703 -0.86556,-15.42183 0.49444,-19.58988 0.61892,-2.05303 1.73158,-4.89772 2.46125,-6.30774 0.74224,-1.40992 1.11336,-3.01783 0.99004,-3.56195 -0.2478,-0.49443 -3.6486,-2.90647 -7.6311,-5.2565 -8.94212,-5.24407 -14.68593,-10.84682 -17.72725,-17.26959 -3.50017,-7.38376 -4.14328,-10.0429 -4.14328,-17.1013 0,-10.04292 0.86556,-12.18262 14.90975,-35.26032 5.63985,-9.28845 11.18081,-18.52365 12.30627,-20.5149 2.77048,-4.86073 10.95814,-12.87771 15.41929,-15.09404 14.39157,-7.14877 26.02868,-5.59041 43.96869,5.88718 2.38703,1.52124 4.48962,2.77048 4.69984,2.77048 0.37111,0 6.04796,-8.64533 6.04796,-9.26367 0,-0.2478 1.66969,-2.96838 3.69804,-6.14697 2.02837,-3.16626 5.31831,-9.12768 7.30956,-13.24375 6.10985,-12.64524 14.6427,-18.51145 28.15476,-19.3611 14.39525,-0.86556 26.15614,3.47549 38.07032,14.18249 1.99125,1.79337 4.30406,3.25283 5.13273,3.25283 1.43469,0.002 3.95783,0.61891 11.35393,2.62203 5.04618,1.38524 14.92208,6.54275 19.74316,10.30269 7.30966,5.68929 12.19506,11.46515 17.33148,20.48033 0.49445,0.86557 2.11491,2.21392 3.62383,3.04248 4.67517,2.56027 10.15424,8.55879 12.40527,13.59136 1.71914,3.83417 2.13969,5.97374 2.13969,11.02004 0,7.32187 -0.86555,9.89446 -6.40674,18.01159 -4.53907,6.71586 -12.21961,18.96532 -12.21961,19.49341 0,0.2478 -1.23691,2.30048 -2.74582,4.66272 -1.50891,2.36237 -3.46304,5.54097 -4.32883,7.04987 -0.86556,1.50892 -5.83774,9.82024 -11.04471,18.44333 -5.20694,8.63289 -10.09234,16.77365 -10.85913,18.10068 -0.74224,1.32347 -7.63121,12.7318 -15.27095,25.34223 -7.6311,12.61054 -14.58936,24.1673 -15.45399,25.68371 -0.86556,1.52124 -2.72091,4.5885 -4.13094,6.83954 -1.40991,2.25091 -3.09192,5.1575 -3.75983,6.46853 -0.61891,1.31101 -3.37648,4.61328 -6.02329,7.3342 -7.33433,7.50754 -15.38587,10.74791 -26.54814,10.68614 -3.53726,-0.023 -7.70531,-0.37112 -9.25134,-0.74224 z m 16.39883,-10.51292 c 5.18219,-1.49646 11.19315,-5.71407 14.43111,-10.11713 1.63256,-2.2138 2.95593,-4.25461 2.95593,-4.51428 0,-0.24779 1.63257,-3.03026 3.62393,-6.13463 1.99125,-3.10438 3.62382,-5.81296 3.62382,-6.02331 0,-0.24779 1.2368,-2.3128 2.74571,-4.67505 1.50891,-2.36237 3.46304,-5.54097 4.3165,-7.04987 0.86556,-1.50891 9.44924,-15.78788 19.07032,-31.71672 9.62245,-15.9302 18.15761,-30.11512 18.96404,-31.52514 0.86556,-1.4099 2.41181,-4.05672 3.56206,-5.88719 1.11335,-1.83046 2.75803,-4.47728 3.56203,-5.88718 0.86556,-1.41002 4.04428,-6.83953 7.21054,-12.05893 3.16626,-5.2193 5.83774,-10.26547 5.93675,-11.20549 0.12332,-1.43468 -3.7476,-4.09383 -24.75477,-16.83299 -13.71756,-8.32378 -25.84565,-15.62467 -26.9514,-16.23437 -1.11336,-0.61891 -6.90142,-4.10628 -12.87148,-7.76721 -5.97374,-3.66094 -12.09605,-7.359 -13.61602,-8.22478 -1.52124,-0.86556 -4.68751,-2.80759 -7.04987,-4.3165 -2.36225,-1.50892 -4.46483,-2.7457 -4.67506,-2.7457 -0.24779,0 -2.30047,-1.23679 -4.67517,-2.74571 -2.36237,-1.5089 -5.54096,-3.46304 -7.04987,-4.32882 -1.52125,-0.86557 -3.90827,-2.23859 -5.3183,-3.06727 -1.4099,-0.86555 -2.72092,-1.32346 -2.91881,-1.11336 -0.2478,0.24781 -5.7883,9.43679 -12.4349,20.50016 -6.64164,11.05703 -18.31967,30.4292 -25.94707,43.03974 -7.63109,12.61055 -14.49299,24.01518 -15.25852,25.34223 -0.74222,1.32334 -6.30774,10.61179 -12.33104,20.64238 -6.01086,10.03057 -11.53937,20.09191 -12.28149,22.37015 -2.84471,8.70723 0.12216,19.09763 7.30954,25.58713 3.37648,3.05494 18.64859,12.86906 27.31986,17.56521 0.86556,0.49444 9.23901,5.51619 18.53485,11.16837 25.62182,15.59494 28.5827,17.30173 30.03479,17.31418 0.74224,0.006 1.87992,0.37113 2.54781,0.74224 1.66969,1.11336 8.39789,0.99003 12.37669,-0.12332 z m -7.54454,-11.7497 c -3.64859,-0.37112 -9.09056,-3.73517 -11.40337,-6.91376 -1.84291,-2.54782 -2.27581,-3.98249 -2.27581,-7.58166 0,-4.00728 0.49444,-5.20695 4.93497,-12.54992 2.70857,-4.46483 5.63984,-9.35022 6.50551,-10.87158 0.86556,-1.50891 2.8076,-4.68751 4.31651,-7.04976 1.50891,-2.36237 2.74569,-4.46496 2.74569,-4.67518 0,-0.24778 1.23691,-2.3128 2.74583,-4.67517 1.50891,-2.36225 3.46304,-5.54084 4.32882,-7.04975 7.3961,-12.90122 21.47464,-35.51502 23.18893,-37.22805 4.47728,-4.47728 11.41571,-4.56383 17.79272,-0.2478 5.04618,3.43839 6.82721,6.93854 6.41909,12.56976 -0.2478,4.09382 -1.53369,6.4314 -16.5943,31.35686 -8.94212,14.81202 -16.55351,27.30132 -16.9085,27.75519 -0.37111,0.49444 -1.55835,2.44892 -2.67147,4.44017 -11.36626,20.25028 -14.84671,23.66388 -23.12219,22.69171 z m 15.10396,-30.334 c 6.40664,-10.62413 12.8195,-21.29911 14.25049,-23.73316 1.43469,-2.43647 6.27064,-10.50046 10.76026,-17.9127 4.48961,-7.42087 8.15054,-14.19736 8.15054,-15.06557 0,-1.81814 -3.48782,-4.40306 -5.10794,-3.78472 -0.86557,0.37112 -28.35152,45.03237 -35.92442,58.37005 -0.61891,1.11336 -2.43658,4.11861 -3.94549,6.55509 -6.30775,10.20369 -6.90142,12.17028 -4.30405,14.18377 3.10437,2.39947 4.19272,1.11335 16.10942,-18.6078 z m -51.70859,9.39979 c -6.61698,-3.10437 -10.85926,-8.398 -10.85926,-13.56162 0,-1.11336 0.74224,-3.43838 1.59547,-5.25652 3.25282,-6.72819 45.54812,-76.42371 47.76689,-78.70689 3.05493,-3.14149 7.53222,-4.32884 11.88582,-3.15382 10.98281,2.95592 15.81012,12.78492 10.64893,21.69235 -1.11336,1.99137 -2.73338,4.69995 -3.51261,6.03563 -0.74225,1.32346 -9.28845,15.44661 -18.90838,31.37544 -9.62235,15.92893 -18.21939,30.22888 -19.1012,31.77859 -4.29185,7.53221 -7.48277,10.25324 -12.81098,10.89636 -2.44881,0.24781 -4.44006,-0.023 -6.70352,-1.11335 z m 12.21971,-18.83543 c 3.01783,-4.97194 5.62741,-9.39978 5.80064,-9.85734 0.12332,-0.49444 1.29857,-2.2757 2.49836,-4.04438 1.2368,-1.7687 3.09194,-4.8483 4.2175,-6.83955 1.11336,-1.99125 7.6311,-12.89372 14.47316,-24.22794 6.83955,-11.32914 12.65377,-21.18533 12.92589,-21.89277 0.49444,-1.24912 -2.73337,-4.56384 -4.40307,-4.56384 -1.11334,0 -4.06904,3.43838 -5.97373,6.93854 -0.99004,1.71913 -4.32883,7.45799 -7.55699,12.77005 -3.22805,5.30596 -6.4932,10.73559 -7.26009,12.07128 -0.74225,1.32334 -7.04977,11.77449 -13.95983,23.23098 -6.91376,11.45293 -12.56721,21.26949 -12.56721,21.82351 0,1.24925 3.15381,3.51261 4.97194,3.57438 0.86557,0.023 3.25283,-3.09192 6.83955,-8.99156 z m -46.00695,-1.11336 c -7.98977,-4.20516 -11.36626,-12.30627 -7.92788,-19.01844 1.66969,-3.25282 41.56425,-69.69182 44.79725,-74.59819 3.67327,-5.57808 5.76352,-6.81487 11.40337,-6.76532 3.51249,0.023 5.70174,0.49444 8.03921,1.89226 5.97386,3.43837 7.82911,6.45618 7.75488,12.62782 -0.0461,4.18051 -0.74224,5.41729 -21.92124,40.7282 -25.24459,42.03552 -25.7826,42.86409 -29.15656,44.92092 -3.11682,1.90469 -9.58534,2.01602 -12.99272,0.24779 z m 11.68792,-15.74948 c 1.97881,-3.20338 4.00728,-6.55509 4.48963,-7.44566 0.49444,-0.86556 3.52481,-5.96141 6.75296,-11.26737 3.22805,-5.30584 6.4932,-10.73547 7.2601,-12.07127 0.74225,-1.32334 4.37828,-7.29709 8.03922,-13.27463 3.64861,-5.97387 7.2601,-11.94761 8.02689,-13.2735 0.74223,-1.32334 2.70858,-4.5885 4.3165,-7.23531 3.35171,-5.52851 3.40126,-5.78829 1.59545,-7.77954 -2.54781,-2.81994 -4.71227,-1.86758 -8.12588,3.56204 -12.05882,19.16932 -42.03298,70.04797 -42.03298,71.34296 0,1.76857 1.96658,3.21571 4.44016,3.25281 1.11336,0.0231 2.65915,-1.64502 5.23173,-5.80062 z m -28.95993,-32.11388 c 1.75625,-2.72091 3.20327,-5.41717 3.20327,-5.99852 0,-0.61891 -2.4736,-2.64669 -5.50374,-4.60095 -6.57987,-4.2546 -9.12768,-7.94032 -9.62246,-13.93884 -0.49444,-5.51618 -0.0576,-6.41898 10.97059,-24.81412 9.93157,-16.55098 11.84859,-19.05557 16.39019,-21.39304 5.61507,-2.89415 10.58714,-2.01603 20.01655,3.53727 l 3.69805,2.17681 3.37648,-5.66463 c 1.85525,-3.11683 3.14149,-6.03565 2.85705,-6.49331 -0.61891,-1.11336 -10.25315,-7.17343 -14.42868,-9.17713 -4.22983,-2.02835 -14.19725,-2.56014 -18.77723,-0.99003 -5.23173,1.7687 -10.12947,5.66463 -13.58018,10.80982 -3.77227,5.61506 -21.80126,35.52977 -24.16973,40.09487 -4.58862,8.85556 -4.58862,14.93822 0.0461,24.4097 1.79335,3.67326 7.5322,9.35022 11.50236,11.39104 1.28624,0.61891 3.95784,2.20147 5.92431,3.42593 1.96658,1.23679 3.87127,2.21392 4.24227,2.21392 0.37112,0 2.10259,-2.22625 3.85883,-4.94729 z m 18.61276,-30.64817 c 4.56384,-7.63111 8.69478,-14.60167 9.17712,-15.48602 0.49443,-0.86556 1.84279,-3.14149 3.03014,-5.00907 1.2368,-1.86758 2.15204,-3.69815 2.15204,-4.05683 0,-1.11335 -8.47212,-5.81296 -10.61182,-5.81296 -1.11335,0 -2.81991,0.61891 -3.72281,1.41002 -2.10259,1.80569 -20.26758,32.27821 -20.23416,33.94295 0.0231,0.74224 0.49444,1.84291 0.99004,2.56026 1.24913,1.6449 8.58344,6.33242 9.90679,6.33242 0.49444,0 4.72462,-6.24587 9.28846,-13.87823 z m 175.8819,-18.31955 c 1.58313,-2.54781 2.04069,-8.1011 0.99004,-12.05893 -0.99004,-3.94538 -7.68067,-11.23026 -10.26558,-11.27971 -2.27571,-0.0461 -3.83417,-1.69447 -6.24586,-6.60453 -5.05863,-10.3398 -16.37418,-20.22561 -27.99652,-24.46421 -4.09384,-1.49646 -13.11145,-3.48771 -15.74708,-3.48771 -1.27392,0 -3.87116,-1.85524 -7.66821,-5.46673 -9.68424,-9.18957 -22.37754,-13.71007 -32.30047,-11.48993 -7.96511,1.78091 -14.67855,6.40664 -13.70143,9.43679 0.24781,0.86555 1.65736,2.15203 3.09205,2.9807 1.43469,0.86556 3.77227,2.16448 5.18217,2.96838 1.41003,0.86555 4.05672,2.4118 5.88731,3.56204 1.83047,1.11336 4.47715,2.75804 5.88718,3.56194 1.40991,0.74223 6.90143,4.09394 12.21972,7.32199 5.30585,3.2157 10.73547,6.48085 12.07126,7.24764 1.32337,0.74223 9.28847,5.56574 17.69868,10.64903 8.41033,5.08329 22.5261,13.63585 31.37544,18.9924 8.85555,5.3554 16.63637,9.74613 17.30426,9.74613 0.61777,0.004 1.6697,-0.74224 2.22626,-1.62025 z M 1070.1534,374.5502 c -5.1823,-1.76869 -10.4635,-4.86073 -13.8782,-8.12588 -2.4613,-2.36226 -8.9916,-11.77438 -12.827,-18.52125 -0.8656,-1.54601 -12.7267,-21.27801 -26.3242,-43.84491 -13.5976,-22.56562 -29.60426,-49.17437 -35.57189,-59.13072 -5.96141,-9.95623 -11.49004,-18.8254 -12.28149,-19.70974 -0.74224,-0.86557 -2.44893,-3.4136 -3.68572,-5.62753 -1.97892,-3.53726 -2.26335,-4.88539 -2.31292,-11.26737 -0.0461,-5.52851 0.2478,-8.0021 1.45946,-10.46335 2.79527,-5.91196 6.48086,-10.29025 11.27971,-13.41201 3.53727,-2.30049 5.40484,-4.24229 7.23543,-7.51978 8.15055,-14.54485 24.75102,-25.89762 43.10282,-29.47315 4.3165,-0.86556 5.9367,-1.64503 9.2513,-4.60096 10.4138,-9.25134 21.8519,-13.81886 34.5019,-13.76826 14.6674,0.0576 25.0752,6.74064 31.2876,20.08086 1.7562,3.77227 4.7,9.2019 6.5551,12.08371 1.8552,2.8817 4.5268,7.27244 5.9368,9.75847 1.4223,2.49824 3.0301,4.89772 3.5867,5.34295 0.7423,0.61891 3.0673,-0.49444 8.2372,-3.58672 15.9857,-9.70901 27.8258,-10.76024 41.767,-3.69804 7.1983,3.6486 11.2922,8.86789 25.1209,32.00863 15.2697,25.55625 14.5746,24.26126 16.034,29.86273 3.3147,12.74538 -1.1134,27.033 -11.2055,36.17186 -2.6467,2.39936 -5.1079,4.3535 -5.4666,4.3535 -0.4945,0 -10.5748,6.1593 -12.5982,7.68065 -0.1234,0.10373 0.371,1.39757 1.2492,2.89415 2.7952,5.10795 3.8218,9.82024 3.8218,17.59229 0,8.85557 -1.3606,13.3786 -6.2336,20.70174 -3.2652,4.91018 -6.5799,7.84144 -13.8721,12.24449 -3.5373,2.1397 -14.0378,8.4969 -23.3299,14.13421 -9.2884,5.63985 -18.1342,10.95815 -19.6505,11.82393 -1.5089,0.86557 -4.6875,2.8076 -7.0498,4.32884 -2.3623,1.5089 -4.4649,2.7457 -4.6752,2.7457 -0.2477,0 -2.894,1.62024 -5.9738,3.58683 -7.8413,5.02139 -13.9821,6.88898 -22.51,6.81475 -4.304,-0.0461 -8.4473,-0.61891 -10.9827,-1.44702 z m 17.4378,-9.82024 c 3.599,-1.11335 6.0974,-2.31292 9.8203,-4.58861 1.6944,-0.98889 4.2174,-2.53547 5.6275,-3.33938 13.3575,-7.6311 60.9945,-36.89657 62.7545,-38.55266 5.2936,-4.98428 7.7548,-11.0447 7.7795,-19.16194 0.023,-6.12219 -1.2368,-10.06757 -5.1945,-16.31965 -1.1134,-1.84281 -2.7829,-4.5144 -3.5869,-5.92431 -0.8656,-1.41001 -9.3378,-15.59493 -18.9689,-31.52514 -9.6225,-15.92883 -18.6634,-30.95233 -20.0784,-33.38639 -2.4736,-4.25461 -9.474,-15.85103 -24.0078,-39.79314 -3.7475,-6.18409 -7.1487,-11.3416 -7.5568,-11.4776 -0.3712,-0.12332 -3.7971,1.62024 -7.5321,3.89595 -3.7353,2.27569 -7.8787,4.77406 -9.202,5.54083 -1.3234,0.74225 -12.7305,7.64355 -25.3409,15.2796 -12.6105,7.63111 -24.082,14.54117 -25.4906,15.34507 -1.41,0.86556 -4.0569,2.41182 -5.8873,3.56205 -1.8304,1.11336 -4.4772,2.75815 -5.8871,3.56205 -5.0215,2.86937 -27.5364,16.58185 -29.44732,17.92999 l -1.9418,1.37291 3.87127,6.27063 c 2.12725,3.45072 4.50195,7.34666 5.26874,8.68234 0.74223,1.32346 7.63121,12.73053 15.26961,25.34107 7.6312,12.61054 14.5846,24.16847 15.4478,25.6836 0.8656,1.5089 2.8076,4.6875 4.3165,7.04987 1.5089,2.36225 2.7457,4.42772 2.7457,4.5885 0,0.12332 2.9437,5.13274 6.5427,11.0447 3.5991,5.92441 7.2477,11.99705 8.1134,13.51587 0.8656,1.5089 2.7087,4.58862 4.1186,6.83964 1.4099,2.25093 3.0178,4.98429 3.5867,6.09742 2.6221,5.08328 10.5007,15.82993 13.1721,17.95108 5.6522,4.48961 15.3686,6.50563 21.6591,4.51439 z m -13.8758,-13.22151 c -1.1134,-0.61891 -4.1187,-4.32894 -6.5428,-8.21243 -4.5884,-7.34666 -12.65,-20.57681 -15.0778,-24.75604 -0.7423,-1.32335 -7.557,-12.62046 -15.0755,-25.09362 -7.5198,-12.47453 -13.8918,-23.87791 -14.1552,-25.34233 -0.619,-3.66093 0.6189,-8.44732 2.8323,-10.88392 5.9614,-6.44376 14.7624,-8.18766 20.2402,-4.00727 2.35,1.79347 16.807,24.7437 33.2233,52.75625 0.9899,1.60779 4.3412,7.25998 7.5569,12.56963 9.4368,15.56404 9.1276,14.90237 9.14,19.70986 0.011,5.81296 -1.7191,8.905 -6.7406,11.98471 -3.3271,2.05302 -4.8854,2.48591 -8.6701,2.46125 -2.5354,-0.023 -5.5656,-0.49444 -6.7406,-1.23679 z m 9.5977,-10.48824 c 0.99,-0.74224 1.7933,-1.85514 1.7933,-2.58492 0,-2.1397 -44.4831,-75.7262 -46.0971,-76.2642 -1.7439,-0.61891 -5.3925,1.63258 -5.3925,3.2776 0,0.61891 4.2051,8.15055 9.3503,16.67463 5.1451,8.52167 14.7835,24.55066 21.424,35.61277 16.3531,27.24195 15.2363,25.86788 18.9244,23.28539 z m 24.7164,-9.06579 c -2.7086,-1.28623 -6.8396,-5.46673 -6.8396,-6.93853 0,-0.2478 -1.6325,-2.96825 -3.6239,-6.07275 -1.9912,-3.10437 -3.6238,-5.8253 -3.6238,-6.03563 0,-0.2478 -1.6326,-2.93115 -3.6239,-6.03564 -1.9912,-3.10437 -3.6237,-5.81296 -3.6237,-6.02318 0,-0.2478 -1.237,-2.30048 -2.7335,-4.6504 -1.5088,-2.35003 -3.5867,-5.75119 -4.6256,-7.55699 -0.9901,-1.80569 -6.6911,-11.23026 -12.5475,-20.95403 -10.488,-17.39452 -10.6613,-17.75318 -10.6613,-22.44565 0,-4.10616 0.3711,-5.16984 2.3994,-7.68053 2.4614,-2.98072 6.7406,-5.62753 10.6984,-6.60466 2.6963,-0.61891 8.4352,0.74225 10.55,2.58493 1.41,1.23691 8.5341,11.73738 8.5341,12.5883 0,0.24779 1.2367,2.30047 2.7333,4.66283 1.5089,2.34993 3.5868,5.75108 4.6257,7.55688 0.99,1.8057 8.9545,14.99631 17.5762,29.32472 l 15.6877,26.05103 v 4.97195 c 0,5.85007 -1.4593,8.32366 -6.9137,11.7126 -4.7741,2.96837 -9.8326,3.52493 -14.0007,1.55835 z m 9.14,-11.84859 1.6202,-2.05314 -2.2386,-3.77227 c -1.2368,-2.07781 -6.5056,-10.83448 -11.7125,-19.46241 -5.2071,-8.63301 -10.1792,-16.92832 -11.0449,-18.44333 -0.8655,-1.50891 -2.8075,-4.68751 -4.3287,-7.04987 -1.5089,-2.36226 -2.7458,-4.46484 -2.7458,-4.67518 0,-0.2478 -1.5706,-2.83225 -3.4878,-5.81296 -1.9171,-2.99304 -3.6362,-5.80064 -3.8217,-6.2583 -1.1134,-2.62204 -6.0975,-10.08003 -7.0251,-10.42626 -1.447,-0.49443 -5.7883,2.02837 -5.7883,3.43827 0,0.61891 1.6327,3.6115 3.6239,6.6912 1.9913,3.0796 3.6238,5.71408 3.6238,5.85008 0,0.12332 4.5763,7.81665 10.1542,17.07053 5.5904,9.25134 10.8716,18.05493 11.725,19.56994 0.8656,1.52136 2.8076,4.68763 4.3165,7.04987 1.5088,2.36238 2.7458,4.46484 2.7458,4.67518 0,0.24779 1.6325,2.91882 3.6237,6.02319 1.9913,3.10449 3.6239,5.8873 3.6239,6.18408 0,1.11336 2.7458,3.47549 4.0939,3.47549 0.7422,0 2.152,-0.86555 3.0425,-2.05314 z m 22.6101,-8.163 c -1.1134,-0.74224 -2.4365,-1.80569 -2.9807,-2.34992 -0.9889,-0.86556 -13.8881,-21.90269 -13.8881,-22.50996 0,-0.12333 -1.2368,-2.22626 -2.7457,-4.58862 -1.509,-2.36225 -3.4508,-5.54085 -4.3165,-7.04975 -0.8656,-1.50892 -6.147,-10.30269 -11.7373,-19.53548 -14.6365,-24.14254 -15.7867,-26.32545 -15.7867,-29.97038 0,-4.37827 2.3129,-8.27421 6.8891,-11.56415 3.4382,-2.47358 4.4772,-2.80758 8.8803,-2.81992 4.3659,-0.009 5.3677,0.2478 7.965,2.39936 1.6326,1.32346 3.797,3.85883 4.7988,5.62752 0.99,1.7687 4.4649,7.55688 7.6806,12.87148 3.2157,5.30596 6.4809,10.73547 7.2478,12.07127 0.7422,1.32335 7.2971,12.19494 14.5016,24.13516 7.2105,11.9476 13.7692,23.06156 14.577,24.6991 3.1044,6.30775 1.1133,12.26917 -5.776,16.90837 -3.7597,2.54781 -5.0832,2.99315 -8.8679,3.01782 -2.9187,0.0231 -5.1327,-0.49444 -6.4314,-1.34812 z m 10.0554,-11.46527 c 1.7562,-1.94179 1.8799,-1.62024 -5.2194,-13.34886 -3.2034,-5.28118 -6.4438,-10.69836 -7.2106,-12.02182 -0.7424,-1.32335 -5.6523,-9.4739 -10.8593,-18.10194 -5.2069,-8.6329 -10.0923,-16.77365 -10.8592,-18.10069 -0.7423,-1.32346 -2.622,-4.40305 -4.1185,-6.83965 -1.5088,-2.43647 -3.3271,-5.51606 -4.032,-6.83952 -0.7424,-1.32336 -1.9418,-2.53548 -2.721,-2.69627 -2.078,-0.37112 -5.2317,1.52136 -5.2317,3.20338 0,1.76869 -0.8655,0.2478 20.5224,35.6894 9.6223,15.92894 18.1453,30.11513 18.9528,31.52388 4.2423,7.3961 5.6399,9.10289 7.4704,9.10289 0.9889,0 2.5231,-0.74222 3.3023,-1.58313 z m 32.7048,-36.29045 c 10.513,-6.4933 13.1833,-9.73368 15.5481,-18.81064 0.8656,-3.2776 0.99,-5.63986 0.4944,-8.88034 -0.8656,-5.51618 -2.0407,-7.92787 -9.944,-20.92556 -3.5001,-5.75119 -7.0621,-11.70026 -7.9279,-13.21414 -0.8655,-1.5089 -2.721,-4.58849 -4.1186,-6.83952 -1.4099,-2.25104 -3.0673,-5.08329 -3.698,-6.30775 -1.8429,-3.58672 -8.0146,-9.36269 -12.0218,-11.2426 -4.4897,-2.10258 -13.8696,-2.83225 -18.3284,-1.42235 -1.6943,0.49445 -5.615,2.47359 -8.7193,4.30418 -3.0921,1.83046 -6.3573,3.69804 -7.2354,4.1556 -0.8656,0.49444 -1.7193,1.43469 -1.8552,2.16448 -0.3712,2.01602 6.2457,12.12071 7.3712,11.23026 0.4945,-0.37112 3.3642,-2.04082 6.3696,-3.64861 6.4686,-3.46316 10.8221,-3.78471 16.321,-1.23679 4.5268,2.12724 5.306,3.16614 16.6474,22.01644 12.2816,20.4234 12.7269,21.91133 8.9546,29.89372 -1.7933,3.79694 -2.9559,4.99662 -7.8414,8.12577 -3.1538,2.01603 -5.8502,3.74761 -5.9738,3.8465 -0.4945,0.37112 5.3431,10.06769 6.6541,11.02003 1.2369,0.86556 0.7423,0.98889 9.3625,-4.26706 z m -17.3214,-18.93189 c 4.0071,-2.34992 5.9614,-4.69984 5.9614,-7.17342 0,-1.29868 -11.1685,-20.8057 -18.5324,-32.35499 -2.1273,-3.35181 -4.7988,-3.53726 -10.0924,-0.74222 -2.6096,1.38523 -4.8606,3.0797 -4.9843,3.77226 -0.1234,0.74224 4.3659,8.83078 9.9811,18.10195 5.6151,9.27612 10.5994,17.67031 11.0941,18.66346 1.1133,2.32526 2.214,2.27571 6.5799,-0.24778 z M 986.37193,212.24479 c 4.0815,-2.49837 8.57112,-5.19462 9.98113,-5.98618 1.40991,-0.74225 4.05674,-2.39937 5.88724,-3.5496 1.8304,-1.11336 4.4772,-2.75816 5.8871,-3.56206 1.4101,-0.86555 12.8802,-7.70532 25.4907,-15.33642 12.6104,-7.63121 29.2641,-17.68518 37.0065,-22.34548 16.1467,-9.72136 18.504,-11.27972 18.504,-12.29395 0,-0.98888 -5.0463,-5.52851 -7.6312,-6.86431 -1.1134,-0.61892 -4.2176,-1.49646 -6.8395,-2.01591 -10.278,-2.01603 -23.643,2.85704 -32.5095,11.84859 -4.2176,4.2794 -5.4791,5.10806 -7.7919,5.1204 -4.3042,0.0231 -14.6438,2.88181 -19.7976,5.49141 -10.7975,5.45441 -18.39762,12.7009 -23.18782,22.10427 -2.00358,3.92072 -3.28982,5.39251 -6.17163,6.98797 -5.26885,2.91894 -6.62931,4.05683 -9.00402,7.55699 -1.7439,2.5726 -2.12724,4.0444 -2.12724,8.27423 0,5.35539 1.54602,9.11533 3.73517,9.11533 0.61891,0 4.47716,-2.0408 8.55866,-4.53917 z m -6.23353,113.74569 c -0.24779,-0.98889 -0.86555,-3.0796 -1.24912,-4.62562 -0.86556,-3.25282 -6.0233,-22.29108 -7.22299,-26.7497 -1.11335,-4.10628 -2.05313,-7.70532 -4.42783,-16.69331 -2.46126,-9.3379 -3.61149,-13.45767 -4.45251,-16.08961 -2.12724,-6.64164 -1.95413,-7.01276 4.04439,-8.57111 4.10616,-1.11336 5.2564,-0.49444 5.86252,2.77048 0.24781,1.23679 0.98889,4.3535 1.73146,7.01264 2.79527,10.09236 4.6504,16.99264 5.30597,19.70987 0.61891,2.80758 0.99003,4.14327 3.61149,13.27463 2.09014,7.40855 2.84458,10.2037 3.57438,13.27348 0.37113,1.54603 1.44702,5.67697 2.39936,9.1648 0.98889,3.50015 1.44714,6.60452 1.11336,6.90142 -0.86557,0.74224 -6.87665,2.43647 -8.534,2.43647 -0.74224,0 -1.48413,-0.86556 -1.74391,-1.80568 z m -46.97532,-10.84681 c -3.42593,-1.23679 -3.50016,-1.28623 -3.03015,-4.14328 0.2478,-1.60791 1.38524,-5.81307 2.5107,-9.35034 1.11336,-3.53727 2.38703,-7.70532 2.81992,-9.25135 0.37112,-1.54602 1.70681,-5.89951 2.83238,-9.65945 1.11335,-3.75995 2.43646,-8.28667 2.90647,-10.05524 0.49445,-1.76869 1.2368,-3.8465 1.58314,-4.61328 0.37112,-0.74224 0.74224,-1.94181 0.74224,-2.60971 0,-1.47179 1.97891,-1.54602 6.88909,-0.2478 4.05672,1.11336 4.04438,1.11336 2.02836,8.06401 -0.49445,1.65735 -1.23679,4.19271 -1.59546,5.62751 -1.26158,4.5514 -6.33254,21.66146 -9.96869,33.58797 -1.26158,4.14338 -2.31293,4.50206 -7.69299,2.62204 z m 6.24597,-163.76972 c -3.66105,-4.95961 -8.52167,-11.53948 -10.79735,-14.6389 -2.27582,-3.09204 -6.66643,-9.0659 -9.75847,-13.27348 -3.09204,-4.20517 -7.03743,-9.6348 -8.76901,-12.07127 -1.73158,-2.43648 -3.33937,-4.60095 -3.57438,-4.82362 -1.23679,-1.11336 -4.84828,-6.41897 -4.84828,-7.049761 0,-0.865558 6.75297,-5.82541 7.94033,-5.82541 0.74222,0 11.71259,14.337171 26.65081,35.000521 3.75983,5.20696 7.22298,9.86981 7.69299,10.36447 2.18914,2.30048 10.0058,14.10332 9.99335,15.08286 -0.009,0.61893 -1.78102,2.26337 -3.94539,3.67339 l -3.93305,2.57259 z m 31.84901,3.90828 c -3.84637,-2.25104 -4.20504,-3.40127 -2.13958,-6.97565 0.86556,-1.49647 4.91006,-8.50922 9.0039,-15.58248 4.09383,-7.07466 8.34855,-14.50038 9.46168,-16.49174 1.11336,-1.99125 2.68381,-4.57617 3.50015,-5.75107 0.86556,-1.23691 1.49659,-2.43659 1.49659,-2.81993 0.003,-0.37112 0.86555,-1.73158 1.86757,-3.01782 l 1.86758,-2.33758 4.15565,2.26336 c 4.5144,2.46126 4.9844,3.72271 2.5478,6.83953 -0.8655,1.11336 -1.5831,2.26337 -1.5955,2.58493 -0.01,0.37111 -1.95416,3.79704 -4.31638,7.7301 -2.36238,3.93305 -4.51439,7.65588 -4.78651,8.27422 -2.07781,4.73695 -15.76562,26.88582 -16.69573,27.01318 -0.61776,0.0922 -2.62203,-0.74225 -4.39061,-1.71914 z m -18.52367,-26.34655 c -0.24779,-0.61891 -0.24779,-17.51692 -0.24779,-37.649757 l 0.24779,-36.604634 h 5.23175 5.23173 v 37.4098 37.408531 l -5.03385,0.2478 c -3.57437,0.12331 -5.15751,-0.0576 -5.44195,-0.86556 z"
       style="fill:#000000;stroke-width:9.00965977" />
    <g
       id="g3792"
       transform="translate(19.337967,28.571426)">
      <text
         id="text3236-1"
         y="854.55536"
         x="936.52637"
         style="font-style:normal;font-variant:normal;font-weight:bold;font-stretch:normal;font-size:77.63497925px;line-height:0%;font-family:'Bebas Neue';-inkscape-font-specification:'Bebas Neue Bold';text-align:start;letter-spacing:2.62642527px;word-spacing:0px;writing-mode:lr-tb;text-anchor:start;fill:#2b1100;fill-opacity:1;stroke:none;stroke-width:6.46958113"
         xml:space="preserve"><tspan
           style="font-size:120.83233643px;line-height:1.25;text-align:center;letter-spacing:-1.92909515px;text-anchor:middle;fill:#2b1100;stroke-width:6.46958113"
           y="854.55536"
           x="935.56183"
           id="tspan3238-2"
           sodipodi:role="line">18. 9.</tspan></text>
      <text
         id="text3236-1-7"
         y="950.56244"
         x="938.18567"
         style="font-style:normal;font-variant:normal;font-weight:bold;font-stretch:normal;font-size:77.63497925px;line-height:0%;font-family:'Bebas Neue';-inkscape-font-specification:'Bebas Neue Bold';text-align:start;letter-spacing:1.73635983px;word-spacing:0px;writing-mode:lr-tb;text-anchor:start;fill:#000000;fill-opacity:1;stroke:none;stroke-width:6.46958113"
         xml:space="preserve"><tspan
           style="font-size:79.88363647px;line-height:1.25;text-align:center;letter-spacing:-1.27534711px;text-anchor:middle;stroke-width:6.46958113"
           y="950.56244"
           x="937.54797"
           id="tspan3238-2-4"
           sodipodi:role="line">od 19 h</tspan></text>
      <rect
         y="871.52814"
         x="785.08032"
         height="6.4695663"
         width="311.16339"
         id="rect3312"
         style="fill:#2b1100;fill-opacity:1;stroke:none;stroke-width:11.20037174" />
    </g>
  </g>
</svg>
